<?xml version="1.0" encoding="UTF-8"?>
<svg width="58px" height="41px" viewBox="0 0 58 41" version="1.1" xmlns="http://www.w3.org/2000/svg" xmlns:xlink="http://www.w3.org/1999/xlink">
    <!-- Generator: Sketch 41.2 (35397) - http://www.bohemiancoding.com/sketch -->
    <title>logo_short</title>
    <desc>Created with Sketch.</desc>
    <defs></defs>
    <g id="Symbols" stroke="none" stroke-width="1" fill="none" fill-rule="evenodd">
        <g id="Menu-/-Mobile-/-Login">
            <g id="Group-6">
                <g>
                    <g id="logo_short">
                        <path d="M16.8334528,0.000138767713 C10.5661401,0.0036826562 4.81909735,3.47766329 1.91599044,9.01746778 C-0.987116469,14.5572723 -0.566122657,21.2466341 3.00875408,26.3808854 L3.00875408,33.7454545 L8.39850016,31.2995575 C14.5278157,34.8748833 22.2469471,34.2323246 27.6972268,29.6930859 C33.1475065,25.1538472 35.158143,17.6930164 32.724052,11.0401409 C30.289961,4.38726548 23.9340171,-0.0285298813 16.8334528,0.000138767713 L16.8334528,0.000138767713 Z" id="Shape" fill="#00A13A" style="mix-blend-mode: multiply;"></path>
                        <path d="M47.9925398,10.5454574 C44.258099,10.5426491 40.8318709,12.6047415 39.1026899,15.8958576 C37.373509,19.1869736 37.6282569,23.1610975 39.7636705,26.2073028 L39.7636705,30.5818182 L42.9411547,29.1236464 C46.584943,31.2301249 51.1649101,30.8444435 54.4004983,28.1586491 C57.6360865,25.4728547 58.8356441,21.061073 57.4018611,17.1201151 C55.9680781,13.1791572 52.2074455,10.5514573 47.9925398,10.5454574 L47.9925398,10.5454574 Z" id="Shape" fill="#E73089"></path>
                        <path d="M32.1579135,13.7090909 C26.6085686,13.714003 21.6560892,17.1734236 19.7686664,22.3632645 C17.8812436,27.5531054 19.4627814,33.362753 23.7250811,36.8968252 C27.9873808,40.4308973 34.0183205,40.9331109 38.8122315,38.1531753 L42.9829906,40.0727273 L42.9829906,34.3140715 C45.7848033,30.3093622 46.1197668,25.0889256 43.8525101,20.7625295 C41.5852535,16.4361334 37.0905639,13.7189497 32.1849087,13.7090909 L32.1579135,13.7090909 Z" id="Shape" fill="#F8AF1A" style="mix-blend-mode: multiply;"></path>
                        <path d="M13.0294486,15.4130754 L12.0811355,12.6704872 C12.7295008,12.3438079 13.4171798,12.1040963 14.1267824,11.9574143 C14.8920698,11.7487141 15.6783861,11.6290947 16.4704706,11.6008778 C17.3104326,11.5854527 18.1418664,11.7735192 18.8954428,12.1493954 C19.5730463,12.4908825 20.137885,13.02451 20.5211224,13.6852448 C20.9085349,14.3738645 21.1051128,15.1555754 21.0901103,15.9478801 L21.0901103,22.9826189 L19.1528421,22.9826189 L18.3264549,21.8170189 C17.6735251,22.6639656 16.6781212,23.1677517 15.6169888,23.188313 C14.5295556,23.270606 13.4538811,22.915876 12.6230287,22.2009812 C11.9133643,21.4753419 11.5436707,20.4774406 11.6069789,19.458393 C11.5995006,18.5279913 12.0263483,17.6486105 12.758502,17.0860542 C13.6706915,16.4731509 14.7540868,16.1749419 15.8472934,16.2358519 L17.554257,16.2358519 C17.5497496,15.8149255 17.3847192,15.4120453 17.0936478,15.1113907 C16.789066,14.8367357 16.3902139,14.6939539 15.9827667,14.7137154 C15.4797572,14.7225755 14.9795479,14.7916197 14.4925603,14.9194095 C13.9901838,15.035509 13.5001682,15.2008443 13.0294486,15.4130754 Z M14.600939,19.5269577 C14.5969762,19.7964625 14.7051354,20.0552367 14.8989802,20.2400307 C15.1009782,20.4405764 15.3747922,20.5494612 15.6576307,20.5417154 C16.3806136,20.5139485 17.0650181,20.2044124 17.5678044,19.6778001 L17.5678044,18.306506 L15.874388,18.306506 C15.5387838,18.2937595 15.2120414,18.4171687 14.9667169,18.6493295 C14.7104403,18.887258 14.5757054,19.2307385 14.600939,19.5818095 L14.600939,19.5269577 Z" id="Shape" fill="#FFFFFF"></path>
                        <path d="M28.4727273,32.4276867 L29.3677806,30.1784956 C29.7784284,30.414066 30.2080147,30.598825 30.6498841,30.7299102 C31.0195903,30.8648767 31.4011533,30.9476642 31.7868438,30.9765957 C32.0612092,30.9841114 32.3336389,30.9197343 32.5851346,30.7879538 C32.7805356,30.7170386 32.9197478,30.50971 32.9358988,30.265561 C32.9132997,30.0230334 32.7905871,29.8103824 32.6093252,29.6996355 C32.3272828,29.485935 32.0220249,29.3199144 31.7021766,29.2062645 C30.8893689,28.8783868 30.1287071,28.3877544 29.4524478,27.7551734 C28.8896652,27.2620428 28.5606526,26.4726011 28.5694898,25.6365805 C28.5381616,24.636794 28.9179007,23.6822495 29.5854963,23.0826601 C30.3976778,22.4139168 31.3718263,22.0872936 32.3553236,22.1539618 C32.9148656,22.1662404 33.4711728,22.2588008 34.0123819,22.4296692 C34.5873339,22.5903531 35.1300027,22.8862835 35.6089635,23.3003238 L34.7622914,25.5930477 C34.0363241,25.1718447 33.2457674,24.9347343 32.4399908,24.896524 C32.2061589,24.9196462 31.9812255,25.0145954 31.7868438,25.1722313 C31.6198486,25.2700689 31.5124668,25.4717118 31.5086515,25.6946241 C31.5086515,25.9364726 31.9118287,26.2218539 32.7181831,26.5507678 C34.8066409,27.4214225 35.8508698,28.635502 35.8508698,30.1930065 C35.8952579,31.1992525 35.5355581,32.1702098 34.8832446,32.8049704 C34.0577453,33.4862595 33.06479,33.813473 32.065036,33.7336687 C31.4533055,33.7158689 30.844986,33.6185611 30.2507387,33.4434505 C29.5996047,33.2777739 28.9903564,32.9297152 28.4727273,32.4276867 Z" id="Shape" fill="#FFFFFF"></path>
                        <polygon id="Shape" fill="#FFFFFF" points="47.4027152 22.9252525 47.4027152 25.2552189 45.3454545 25.2552189 45.3454545 14.9252525 47.4027152 14.7636364 47.4027152 20.393266 49.9742911 17.9016835 51.1703729 19.5178451 49.4240935 21.1205387 51.6727273 25.3090909 49.4001719 25.3090909 47.9170304 22.4"></polygon>
                    </g>
                </g>
            </g>
        </g>
    </g>
</svg>