<?xml version="1.0" encoding="UTF-8"?>
<svg width="1001px" height="314px" viewBox="0 0 1001 314" version="1.1" xmlns="http://www.w3.org/2000/svg" xmlns:xlink="http://www.w3.org/1999/xlink">
    <!-- Generator: Sketch 41.2 (35397) - http://www.bohemiancoding.com/sketch -->
    <title>bg_footer</title>
    <desc>Created with Sketch.</desc>
    <defs></defs>
    <g id="Symbols" stroke="none" stroke-width="1" fill="none" fill-rule="evenodd">
        <g id="Blocks-/-Footer">
            <g id="footer">
                <g id="bg_footer">
                    <polygon id="Fill-1" fill="#ECECE6" opacity="0.685405344" points="0 310 1001 310 1001 0 0 0"></polygon>
                    <polygon id="Fill-2" fill="#E3E3D8" points="116.43382 313.893788 183.846685 313.893788 183.846685 277.015399 116.43382 277.015399"></polygon>
                    <polygon id="Fill-3" fill="#FFFFFF" points="123.141908 284.457876 177.138597 284.457876 177.138597 244.146974 123.141908 244.146974"></polygon>
                    <polygon id="Fill-4" fill="#FFFFFF" points="169.18396 238.778894 131.096344 238.778894 143.432064 203.898445 156.84824 203.898445"></polygon>
                    <polygon id="Fill-5" fill="#FFFFFF" points="154.511274 198.530566 145.76903 198.530566 148.599947 179.079323 151.680356 179.079323"></polygon>
                    <polygon id="Fill-6" fill="#E3E3D8" points="523.89384 259.533928 636.481675 259.533928 636.481675 224.653479 523.89384 224.653479"></polygon>
                    <polygon id="Fill-7" fill="#FFFFFF" points="540.072525 232.095956 620.30299 232.095956 620.30299 191.785054 540.072525 191.785054"></polygon>
                    <polygon id="Fill-8" fill="#FFFFFF" points="596.395215 186.417175 563.979495 186.417175 574.479243 151.536726 585.896473 151.536726"></polygon>
                    <polygon id="Fill-9" fill="#FFFFFF" points="585.825147 146.168747 574.549764 146.168747 578.201588 126.716498 582.173323 126.716498"></polygon>
                    <polygon id="Fill-10" fill="#FFFFFF" points="481.344561 313.893788 533.036477 313.893788 533.036477 283.675198 481.344561 283.675198"></polygon>
                    <polygon id="Fill-11" fill="#FFFFFF" points="486.488301 280.075687 527.891731 280.075687 527.891731 258.472585 486.488301 258.472585"></polygon>
                    <polygon id="Fill-12" fill="#FFFFFF" points="521.793085 254.357292 492.58755 254.357292 502.047081 227.61045 512.33456 227.61045"></polygon>
                    <polygon id="Fill-13" fill="#FFFFFF" points="510.542249 223.495157 503.838185 223.495157 506.009159 208.579016 508.371275 208.579016"></polygon>
                    <polygon id="Fill-15" fill="#FFFFFF" points="635.129595 293.050224 658.832244 293.050224 658.832244 280.683319 635.129595 280.683319"></polygon>
                    <polygon id="Fill-16" fill="#FFFFFF" points="655.340176 278.327741 638.621262 278.327741 644.036624 263.017244 649.924813 263.017244"></polygon>
                    <polygon id="Fill-17" fill="#FFFFFF" points="648.899385 260.660661 645.062455 260.660661 646.30488 252.122637 647.65696 252.122637"></polygon>
                    <polygon id="Fill-19" fill="#FFFFFF" points="835.28776 283.383455 918.382341 283.383455 918.382341 253.303695 835.28776 253.303695"></polygon>
                    <polygon id="Fill-20" fill="#FFFFFF" points="895.981471 248.77805 857.688629 248.77805 870.090745 219.370306 883.579355 219.370306"></polygon>
                    <polygon id="Fill-21" fill="#FFFFFF" points="881.230216 214.844862 872.439683 214.844862 875.286697 198.444854 878.383202 198.444854"></polygon>
                    <path d="M985.869697,135.747481 L984.840302,135.747481 C983.846924,135.747481 983.092707,134.920507 983.09847,133.927129 L983.09847,133.906239 C983.09847,132.100294 981.633976,130.635081 979.827312,130.635081 C979.72358,130.635081 979.620568,130.641564 979.518997,130.651649 C979.011143,127.936609 976.518695,125.92104 973.602675,126.18109 C970.887635,126.422411 968.718629,128.705234 968.602651,131.428198 C968.576718,132.042666 968.652356,132.636243 968.812996,133.192361 C969.181821,134.466679 968.28137,135.747481 966.955186,135.747481 L966.838487,135.747481 C965.672944,135.747481 964.943218,134.540877 965.421538,133.478345 C965.896255,132.425177 966.099397,131.222895 965.940918,129.960103 C965.568491,127.000861 963.162487,124.630154 960.198202,124.300949 C956.247744,123.862249 952.903109,126.942512 952.903109,130.805086 C952.903109,131.390019 952.980188,131.956222 953.12498,132.495772 C953.562959,134.132432 952.381568,135.747481 950.687279,135.747481 C949.347408,135.747481 948.249579,134.64749 948.296402,133.307619 C948.305046,133.059095 948.288478,132.803367 948.245257,132.544037 C947.990969,131.03344 946.775721,129.816751 945.267285,129.558862 C944.023943,129.346355 942.873527,129.762004 942.071765,130.535671 C941.484671,129.798022 940.675706,129.247666 939.745,128.981853 C939.781018,128.654809 939.801188,128.322723 939.801188,127.986314 C939.801188,122.833574 935.463896,118.693661 930.24056,119.017823 C925.649701,119.303086 921.963616,123.12532 921.83251,127.722662 C921.779203,129.579032 922.289219,131.31222 923.204077,132.764467 C924.020246,134.060396 923.058564,135.747481 921.527077,135.747481 C920.053939,135.747481 918.983483,134.392482 919.271628,132.947439 C919.386165,132.37187 919.410657,131.765327 919.331418,131.140054 C919.013018,128.65697 916.987364,126.667334 914.500678,126.388554 C911.16973,126.014687 908.349518,128.611587 908.349518,131.866898 L908.349518,131.91228 C908.366087,134.010691 906.739512,135.747481 904.641822,135.747481 L902.718458,135.747481 C901.651604,135.747481 900.699287,136.526911 900.597716,137.589443 C900.481738,138.806853 901.436216,139.831926 902.630574,139.831926 L985.957581,139.831926 C987.15194,139.831926 988.106417,138.806853 987.990439,137.589443 C987.889589,136.526911 986.936552,135.747481 985.869697,135.747481 Z" id="Fill-22" fill="#FFFFFF" opacity="0.654381793"></path>
                    <path d="M283.506395,112.157716 L275.684061,112.157716 C271.12964,112.157716 267.492889,108.423592 267.540838,103.86917 C267.541576,103.798353 267.541576,103.727536 267.541576,103.657457 C267.526084,94.3369001 259.832844,86.6569383 250.512288,86.6554629 C246.995778,86.6547253 243.728604,87.7206694 241.014688,89.5464216 C237.997587,83.8471242 232.009857,79.9625138 225.112571,79.9625138 C215.179005,79.9625138 207.125778,88.0150028 207.125778,97.9485697 C207.125778,98.030452 207.130942,98.1101211 207.132417,98.190528 C205.882791,97.764888 204.545382,97.5310442 203.151909,97.5310442 C196.337243,97.5310442 190.812775,103.055512 190.812775,109.870178 L190.812775,109.893784 C190.81425,111.143409 189.801419,112.157716 188.551055,112.157716 L183.351166,112.157716 C182.032936,112.157716 181.039284,111.016529 181.153624,109.7042 C181.215589,109.002669 181.203786,108.279745 181.111576,107.542805 C180.516271,102.787735 176.515845,99.0698397 171.731268,98.8020628 C165.924269,98.4767469 161.114611,103.088707 161.114611,108.824151 L161.114611,108.85956 C161.12125,110.668345 159.706385,112.157716 157.897599,112.157716 L156.931979,112.157716 C153.928893,112.157716 151.49382,114.592052 151.49382,117.595138 C151.49382,120.598224 153.928893,123.03256 156.931979,123.03256 L283.506395,123.03256 C286.50948,123.03256 288.943817,120.598224 288.943817,117.595138 C288.943817,114.592052 286.50948,112.157716 283.506395,112.157716" id="Fill-24" fill="#FFFFFF" opacity="0.51171875"></path>
                    <path d="M527.933485,41.0434034 L522.81155,41.0434034 C519.829389,41.0434034 517.448105,38.5983603 517.479501,35.6161998 C517.479984,35.56983 517.479984,35.5234601 517.479984,35.4775733 C517.46984,29.3746258 512.432433,24.345913 506.329486,24.344947 C504.026933,24.3444639 501.887641,25.0424267 500.110614,26.2378992 C498.135065,22.5060929 494.214398,19.9625138 489.698169,19.9625138 C483.193833,19.9625138 477.920712,25.2351513 477.920712,31.7394878 C477.920712,31.7931029 477.924093,31.845269 477.925059,31.8979181 C477.106825,31.619216 476.231111,31.4660989 475.318688,31.4660989 C470.856556,31.4660989 467.239226,35.0834296 467.239226,39.5455609 L467.239226,39.5610175 C467.240192,40.3792521 466.577006,41.0434034 465.758289,41.0434034 L462.353486,41.0434034 C461.490331,41.0434034 460.839704,40.2961728 460.914572,39.4368816 C460.955146,38.9775304 460.947418,38.5041715 460.88704,38.0216354 C460.497244,34.9080937 457.877831,32.4736769 454.744968,32.298341 C450.942641,32.0853295 447.793356,35.1051655 447.793356,38.8606397 L447.793356,38.8838246 C447.797703,40.0681877 446.871272,41.0434034 445.686909,41.0434034 L445.054637,41.0434034 C443.088266,41.0434034 441.49382,42.6373668 441.49382,44.6037379 C441.49382,46.570109 443.088266,48.1640724 445.054637,48.1640724 L527.933485,48.1640724 C529.899856,48.1640724 531.49382,46.570109 531.49382,44.6037379 C531.49382,42.6373668 529.899856,41.0434034 527.933485,41.0434034" id="Fill-24-Copy" fill="#FFFFFF" opacity="0.610563859" transform="translate(486.493820, 34.063293) scale(-1, 1) translate(-486.493820, -34.063293) "></path>
                    <g id="Group-30" transform="translate(81.000000, 102.631263)" fill="#FFFFFF" opacity="0.331861413">
                        <path d="M14.6853473,0.577930685 C10.2259209,-0.930576698 0.38986298,2.74892041 0.38986298,11.3062806 C0.38986298,21.1692853 12.4675822,29.4973442 12.4675822,31.8635705 C12.4675822,31.8635705 14.8170303,32.268788 17.1664785,31.8635705 C17.1664785,29.4973442 29.2441977,21.1692853 29.2441977,11.3062806 C29.2441977,2.74892041 19.1447738,-0.930576698 14.6853473,0.577930685" id="Fill-26"></path>
                        <path d="M15.0994115,39.3545528 L14.6560619,39.3545528 C13.563449,39.3545528 12.6686148,38.460227 12.6686148,37.3676141 L12.6686148,35.221029 L17.0324567,35.221029 L17.0324567,37.422016 C17.0324567,38.48514 16.1625355,39.3545528 15.0994115,39.3545528" id="Fill-28"></path>
                    </g>
                    <path d="M945.122744,176.364902 C939.714423,174.536978 927.786139,178.997635 927.786139,189.376661 C927.786139,201.337138 942.432668,211.436493 942.432668,214.306645 C942.432668,214.306645 945.281694,214.797579 948.13072,214.306645 C948.13072,211.436493 962.778255,201.337138 962.778255,189.376661 C962.778255,178.997635 950.531065,174.536978 945.122744,176.364902" id="Fill-31" fill="#FFFFFF" opacity="0.865885417"></path>
                    <path d="M945.859547,223.391034 L944.845487,223.391034 C943.653363,223.391034 942.676525,222.414197 942.676525,221.222073 L942.676525,218.378077 L947.969154,218.378077 L947.969154,221.281427 C947.969154,222.442365 947.018473,223.391034 945.859547,223.391034" id="Fill-33" fill="#FFFFFF" opacity="0.865885417"></path>
                    <g id="Group-39" opacity="0.473562047" transform="translate(677.751503, 43.697395)" fill="#FFFFFF">
                        <path d="M26.7879876,1.3636493 C18.6845607,-1.37773347 0.81074509,5.30922846 0.81074509,20.8591563 C0.81074509,38.7812605 22.7568974,53.9157054 22.7568974,58.2154008 C22.7568974,58.2154008 27.0264124,58.9507956 31.2949214,58.2154008 C31.2949214,53.9157054 53.2430858,38.7812605 53.2430858,20.8591563 C53.2430858,5.30922846 34.8914144,-1.37773347 26.7879876,1.3636493" id="Fill-35"></path>
                        <path d="M28.9424629,71.8276489 L25.2916453,71.8276489 C24.099521,71.8276489 23.1226834,70.8518172 23.1226834,69.658687 L23.1226834,64.3157571 L31.0520701,64.3157571 L31.0520701,69.7180417 C31.0520701,70.8789796 30.1023948,71.8276489 28.9424629,71.8276489" id="Fill-37"></path>
                    </g>
                    <polygon id="Fill-40" fill="#DEDED5" points="0 310.070046 1001 310.070046 1001 267 0 267"></polygon>
                    <path d="M52.2231908,272.595183 C52.2231908,285.349404 41.8833992,295.688189 29.1291788,295.688189 C16.3749583,295.688189 6.03617275,285.349404 6.03617275,272.595183 C6.03617275,259.840963 16.3749583,249.501171 29.1291788,249.501171 C41.8833992,249.501171 52.2231908,259.840963 52.2231908,272.595183" id="Fill-42" fill="#DEDED5"></path>
                    <path d="M37.4886357,256.643454 C37.4886357,274.952873 52.3313371,289.794568 70.6397499,289.794568 C88.9491687,289.794568 103.790864,274.952873 103.790864,256.643454 C103.790864,238.335041 88.9491687,223.49234 70.6397499,223.49234 C52.3313371,223.49234 37.4886357,238.335041 37.4886357,256.643454" id="Fill-43" fill="#DEDED5"></path>
                    <path d="M93.4775307,280.217937 C93.4775307,272.486735 99.7439796,266.220286 107.475182,266.220286 C115.205378,266.220286 121.471827,272.486735 121.471827,280.217937 C121.471827,287.94914 115.205378,294.214583 107.475182,294.214583 C99.7439796,294.214583 93.4775307,287.94914 93.4775307,280.217937" id="Fill-44" fill="#DEDED5"></path>
                    <path d="M78.1535531,258.166255 C78.1535531,270.80579 88.4007916,281.052022 101.040327,281.052022 C113.679862,281.052022 123.9271,270.80579 123.9271,258.166255 C123.9271,245.526719 113.679862,235.279481 101.040327,235.279481 C88.4007916,235.279481 78.1535531,245.526719 78.1535531,258.166255" id="Fill-45" fill="#DEDED5"></path>
                    <path d="M170.586843,256.153224 C170.586843,272.020046 183.449713,284.884928 199.318547,284.884928 C215.185368,284.884928 228.049244,272.020046 228.049244,256.153224 C228.049244,240.285397 215.185368,227.421521 199.318547,227.421521 C183.449713,227.421521 170.586843,240.285397 170.586843,256.153224" id="Fill-46" fill="#DEDED5"></path>
                    <path d="M163.709745,265.60521 C163.709745,255.637643 171.790034,247.557355 181.757601,247.557355 C191.726174,247.557355 199.806463,255.637643 199.806463,265.60521 C199.806463,275.572778 191.726174,283.653066 181.757601,283.653066 C171.790034,283.653066 163.709745,275.572778 163.709745,265.60521" id="Fill-47" fill="#DEDED5"></path>
                    <path d="M190.720866,278.74423 C190.720866,292.171473 201.60491,303.055517 215.032153,303.055517 C228.459395,303.055517 239.343439,292.171473 239.343439,278.74423 C239.343439,265.317994 228.459395,254.43395 215.032153,254.43395 C201.60491,254.43395 190.720866,265.317994 190.720866,278.74423" id="Fill-48" fill="#DEDED5"></path>
                    <path d="M231.976111,255.906651 C231.976111,273.808635 246.488841,288.321364 264.390825,288.321364 C282.292809,288.321364 296.804532,273.808635 296.804532,255.906651 C296.804532,238.004667 282.292809,223.491937 264.390825,223.491937 C246.488841,223.491937 231.976111,238.004667 231.976111,255.906651" id="Fill-49" fill="#DEDED5"></path>
                    <path d="M422.534909,278.948652 C422.534909,290.635494 432.008524,300.108103 443.69436,300.108103 C455.380196,300.108103 464.853811,290.635494 464.853811,278.948652 C464.853811,267.262816 455.380196,257.790207 443.69436,257.790207 C432.008524,257.790207 422.534909,267.262816 422.534909,278.948652" id="Fill-50" fill="#DEDED5"></path>
                    <path d="M448.619493,259.072068 C448.619493,274.653182 461.25098,287.284669 476.832094,287.284669 C492.413208,287.284669 505.044695,274.653182 505.044695,259.072068 C505.044695,243.490954 492.413208,230.859467 476.832094,230.859467 C461.25098,230.859467 448.619493,243.490954 448.619493,259.072068" id="Fill-51" fill="#DEDED5"></path>
                    <path d="M569.996152,250.372579 C562.750853,259.541372 564.310172,272.847893 573.478965,280.093192 C582.647759,287.338491 595.95428,285.779172 603.199578,276.610378 C610.444877,267.441585 608.885558,254.135064 599.716765,246.889765 C590.547971,239.644467 577.24145,241.203785 569.996152,250.372579" id="Fill-52" fill="#DEDED5"></path>
                    <path d="M600.66976,237.39271 C591.009026,249.617768 593.088453,267.359796 605.313511,277.021535 C617.53857,286.681263 635.279592,284.602842 644.941331,272.376778 C654.601059,260.15172 652.522638,242.409692 640.29758,232.749964 C628.071515,223.088225 610.330493,225.168658 600.66976,237.39271" id="Fill-53" fill="#DEDED5"></path>
                    <path d="M283.545093,275.06112 C283.545093,262.041312 294.099165,251.486234 307.118972,251.486234 C320.13878,251.486234 330.692852,262.041312 330.692852,275.06112 C330.692852,288.079921 320.13878,298.636006 307.118972,298.636006 C294.099165,298.636006 283.545093,288.079921 283.545093,275.06112" id="Fill-54" fill="#DEDED5"></path>
                    <path d="M335.113068,250.749833 C335.113068,267.431525 348.635881,280.954338 365.317573,280.954338 C381.998258,280.954338 395.522078,267.431525 395.522078,250.749833 C395.522078,234.069148 381.998258,220.546334 365.317573,220.546334 C348.635881,220.546334 335.113068,234.069148 335.113068,250.749833" id="Fill-55" fill="#DEDED5"></path>
                    <path d="M385.208241,243.383511 C385.208241,264.133515 402.029768,280.955042 422.779772,280.955042 C443.529776,280.955042 460.350297,264.133515 460.350297,243.383511 C460.350297,222.633507 443.529776,205.810974 422.779772,205.810974 C402.029768,205.810974 385.208241,222.633507 385.208241,243.383511" id="Fill-56" fill="#DEDED5"></path>
                    <path d="M461.823401,285.374755 C461.823401,295.139108 469.738703,303.055416 479.504062,303.055416 C489.268415,303.055416 497.184723,295.139108 497.184723,285.374755 C497.184723,275.610402 489.268415,267.694094 479.504062,267.694094 C469.738703,267.694094 461.823401,275.610402 461.823401,285.374755" id="Fill-57" fill="#DEDED5"></path>
                    <path d="M511.427439,273.097284 C511.427439,292.625989 527.259051,308.4576 546.788762,308.4576 C566.318473,308.4576 582.150085,292.625989 582.150085,273.097284 C582.150085,253.567572 566.318473,237.735961 546.788762,237.735961 C527.259051,237.735961 511.427439,253.567572 511.427439,273.097284" id="Fill-58" fill="#DEDED5"></path>
                    <path d="M600.322988,289.794669 C600.322988,297.118436 606.259465,303.055919 613.583232,303.055919 C620.907,303.055919 626.843477,297.118436 626.843477,289.794669 C626.843477,282.471907 620.907,276.534424 613.583232,276.534424 C606.259465,276.534424 600.322988,282.471907 600.322988,289.794669" id="Fill-59" fill="#DEDED5"></path>
                    <path d="M663.680116,253.697147 C663.680116,269.563968 676.542986,282.42885 692.411819,282.42885 C708.278641,282.42885 721.141511,269.563968 721.141511,253.697147 C721.141511,237.829319 708.278641,224.965443 692.411819,224.965443 C676.542986,224.965443 663.680116,237.829319 663.680116,253.697147" id="Fill-60" fill="#DEDED5"></path>
                    <path d="M706.407056,284.637851 C706.407056,294.809639 714.652331,303.055919 724.824118,303.055919 C734.995906,303.055919 743.24118,294.809639 743.24118,284.637851 C743.24118,274.46707 734.995906,266.219783 724.824118,266.219783 C714.652331,266.219783 706.407056,274.46707 706.407056,284.637851" id="Fill-61" fill="#DEDED5"></path>
                    <path d="M752.08141,258.853964 C752.08141,276.755948 766.59414,291.268678 784.496124,291.268678 C802.398108,291.268678 816.909831,276.755948 816.909831,258.853964 C816.909831,240.95198 802.398108,226.439251 784.496124,226.439251 C766.59414,226.439251 752.08141,240.95198 752.08141,258.853964" id="Fill-62" fill="#DEDED5"></path>
                    <path d="M784.495822,278.74423 C784.495822,292.171473 795.379866,303.055517 808.807109,303.055517 C822.234351,303.055517 833.117389,292.171473 833.117389,278.74423 C833.117389,265.317994 822.234351,254.43395 808.807109,254.43395 C795.379866,254.43395 784.495822,265.317994 784.495822,278.74423" id="Fill-63" fill="#DEDED5"></path>
                    <path d="M893.532234,281.691544 C893.532234,295.11778 904.416278,306.001824 917.843521,306.001824 C931.269757,306.001824 942.153801,295.11778 942.153801,281.691544 C942.153801,268.264301 931.269757,257.380257 917.843521,257.380257 C904.416278,257.380257 893.532234,268.264301 893.532234,281.691544" id="Fill-64" fill="#DEDED5"></path>
                    <path d="M921.82431,272.792663 C930.742607,281.71096 945.203024,281.71096 954.12132,272.792663 C963.040623,263.873361 963.040623,249.41395 954.12132,240.495653 C945.203024,231.576351 930.742607,231.576351 921.82431,240.495653 C912.906014,249.41395 912.906014,263.873361 921.82431,272.792663" id="Fill-65" fill="#DEDED5"></path>
                    <path d="M920.048095,239.699395 C920.048095,247.023162 914.111618,252.960645 906.786845,252.960645 C899.464083,252.960645 893.527606,247.023162 893.527606,239.699395 C893.527606,232.376633 899.464083,226.43915 906.786845,226.43915 C914.111618,226.43915 920.048095,232.376633 920.048095,239.699395" id="Fill-66" fill="#DEDED5"></path>
                    <path d="M946.09528,270.797923 C946.09528,285.851887 958.299212,298.055819 973.353176,298.055819 C988.407139,298.055819 1000.61007,285.851887 1000.61007,270.797923 C1000.61007,255.743959 988.407139,243.540027 973.353176,243.540027 C958.299212,243.540027 946.09528,255.743959 946.09528,270.797923" id="Fill-67" fill="#DEDED5"></path>
                    <polygon id="Fill-68" fill="#FFFFFF" points="688.758084 309.893788 810.035852 309.893788 810.035852 262.310425 688.758084 262.310425"></polygon>
                    <polygon id="Fill-69" fill="#DEDED5" points="708.850156 309.893788 731.006565 309.893788 731.006565 262.310425 708.850156 262.310425"></polygon>
                    <polygon id="Fill-70" fill="#FFFFFF" points="699.075743 274.618072 799.718192 274.618072 799.718192 224.74402 699.075743 224.74402"></polygon>
                    <polygon id="Fill-71" fill="#FFFFFF" points="772.586752 217.956155 726.20658 217.956155 741.228352 173.843534 757.564981 173.843534"></polygon>
                    <path d="M749.851283,166.755676 C752.525263,166.567552 754.338097,164.015299 753.903499,161.369488 L750.90659,143.093267 C750.649051,141.526907 748.39659,141.526907 748.140057,143.093267 L745.108942,161.57069 C744.644165,164.399596 746.932842,166.960903 749.851283,166.755676" id="Fill-72" fill="#FFFFFF"></path>
                    <polygon id="Fill-73" fill="#FFFFFF" points="127.795719 313.893788 157.386557 313.893788 157.386557 295.111543 127.795719 295.111543"></polygon>
                    <polygon id="Fill-74" fill="#FFFFFF" points="130.740317 293.050224 154.442966 293.050224 154.442966 280.683319 130.740317 280.683319"></polygon>
                    <polygon id="Fill-75" fill="#FFFFFF" points="150.950897 278.327741 134.231983 278.327741 139.647346 263.017244 145.535534 263.017244"></polygon>
                    <polygon id="Fill-76" fill="#FFFFFF" points="144.510106 260.660661 140.673176 260.660661 141.915601 252.122637 143.267681 252.122637"></polygon>
                    <g id="Group-2" transform="translate(289.000000, 125.000000)">
                        <polygon id="Fill-77" fill="#FFFFFF" points="0.471911824 184.893788 14.7492345 184.893788 14.7492345 119.637812 0.471911824 119.637812"></polygon>
                        <polygon id="Fill-78" fill="#FFFFFF" points="126.590609 184.893788 140.866926 184.893788 140.866926 119.637812 126.590609 119.637812"></polygon>
                        <polygon id="Fill-79" fill="#FFFFFF" points="21.5247255 184.893788 119.816124 184.893788 119.816124 144.028573 21.5247255 144.028573"></polygon>
                        <path d="M106.712516,119.63761 L96.4843916,119.63761 L96.4843916,86.8738108 L44.8558545,86.8738108 L44.8558545,119.63761 L34.6277303,119.63761 L34.6277303,100.074701 C33.6921391,99.1391094 33.1680068,98.6139711 32.2314096,97.67838 L23.9217503,97.67838 C22.9851531,98.6139711 22.4610208,99.1391094 21.5244236,100.074701 L21.5244236,139.720628 L119.815822,139.720628 L119.815822,119.63761 L119.815822,100.074701 C118.880231,99.1391094 118.355093,98.6139711 117.419502,97.67838 L109.109842,97.67838 C108.173245,98.6139711 107.649113,99.1391094 106.712516,100.074701 L106.712516,119.63761 Z" id="Fill-80" fill="#FFFFFF"></path>
                        <path d="M74.0406657,18.5501018 L67.3003852,18.5501018 C65.358782,18.5501018 63.7853792,20.1235046 63.7853792,22.0651078 L63.7853792,40.9328633 L77.5546657,40.9328633 L77.5546657,22.0651078 C77.5546657,20.1235046 75.9812629,18.5501018 74.0406657,18.5501018" id="Fill-81" fill="#FFFFFF"></path>
                        <path d="M70.7435619,15.5005776 C72.5624317,15.457319 73.8561631,13.6817078 73.5614016,11.8859764 L71.6399186,0.168954309 L69.7013335,0.168954309 L67.7496701,12.0630345 C67.4508846,13.8879403 68.8814337,15.5448421 70.7435619,15.5005776" id="Fill-82" fill="#FFFFFF"></path>
                        <path d="M113.33801,92.9733623 C115.15688,92.9301038 116.450612,91.1534866 116.15585,89.3587611 L114.234367,77.6417391 L112.294776,77.6417391 L110.343113,89.5358192 C110.045333,91.3607251 111.475882,93.0176269 113.33801,92.9733623" id="Fill-83" fill="#FFFFFF"></path>
                        <path d="M28.149214,92.9733623 C29.9690898,92.9301038 31.2618152,91.1544926 30.9680597,89.3587611 L29.0455707,77.6417391 L27.1069856,77.6417391 L25.1553222,89.5358192 C24.8565367,91.3607251 26.2870858,93.0176269 28.149214,92.9733623" id="Fill-84" fill="#FFFFFF"></path>
                        <path d="M7.47586814,113.8629 C9.30077395,113.8629 10.6910826,112.226119 10.395315,110.424351 L7.47586814,92.6199503 L4.55541523,110.424351 C4.26065371,112.226119 5.65096232,113.8629 7.47586814,113.8629" id="Fill-85" fill="#FFFFFF"></path>
                        <path d="M133.071137,113.8629 C134.897049,113.8629 136.286352,112.226119 135.99159,110.424351 L133.071137,92.6199503 L130.151691,110.424351 C129.855923,112.226119 131.246232,113.8629 133.071137,113.8629" id="Fill-86" fill="#FFFFFF"></path>
                        <path d="M78.9626802,44.0413399 L61.5123956,44.0413399 L45.9514016,79.6712677 C45.4343114,80.8553439 46.3014938,82.1792557 47.5922072,82.1792557 L93.6917022,82.1792557 C94.9964998,82.1792557 95.8636822,80.8271756 95.3184236,79.6410874 L78.9626802,44.0413399 Z" id="Fill-87" fill="#FFFFFF"></path>
                        <path d="M70.6699218,92.9743683 C72.4958337,92.9743683 73.8861423,91.3375868 73.5903747,89.5358192 L70.6699218,71.7314184 L67.7504749,89.5358192 C67.4547074,91.3375868 68.845016,92.9743683 70.6699218,92.9743683 L70.6699218,92.9743683 Z M64.1187715,119.637711 L77.2220782,119.637711 L77.2220782,96.8847371 L64.1187715,96.8847371 L64.1187715,119.637711 Z M52.9288998,184.893687 L88.4119499,184.893687 L88.4119499,157.772609 L52.9288998,157.772609 L52.9288998,184.893687 Z" id="Fill-88" fill="#DEDED5"></path>
                    </g>
                    <polygon id="Fill-89" fill="#FFFFFF" points="642.651044 309.893788 636.968082 309.893788 638.697417 219.92915 640.921709 219.92915"></polygon>
                    <path d="M615.11056,199.50542 C615.11056,199.50542 617.277509,201.776995 620.408219,204.866458 L623.365894,202.813188 L621.114439,205.562618 C622.01482,206.444891 622.981598,207.382494 623.989622,208.343236 L626.621349,205.046534 L624.88799,209.195328 C625.799437,210.054462 626.73704,210.926675 627.683698,211.788827 L630.688656,209.046438 L628.524724,212.550378 C634.556772,217.974795 640.753806,222.777496 642.671265,221.595432 C635.053742,194.681592 615.11056,199.50542 615.11056,199.50542" id="Fill-90" fill="#FFFFFF"></path>
                    <path d="M631.771628,196.818463 C631.771628,196.818463 632.362157,198.854631 633.272598,201.681525 L635.685014,201.373685 L633.47883,202.31833 C633.743411,203.127164 634.030125,203.990322 634.334946,204.880643 L636.938505,203.725741 L634.605564,205.670362 C634.884229,206.470142 635.17396,207.283 635.472746,208.095857 L638.126606,207.390643 L635.738333,208.81415 C637.660822,213.942799 639.874048,218.751537 641.391115,218.640875 C645.219996,200.149368 631.771628,196.818463 631.771628,196.818463" id="Fill-91" fill="#FFFFFF"></path>
                    <path d="M658.984052,204.03348 C658.984052,204.03348 657.553503,206.00627 655.469046,208.71043 L652.979166,207.440843 L654.998232,209.319067 C654.397643,210.091685 653.751783,210.913596 653.076749,211.758646 L650.707591,209.498137 L652.475154,212.507119 C651.864505,213.26364 651.233735,214.031228 650.595923,214.793785 L647.9984,212.999059 L650.029539,215.466807 C645.95519,220.270514 641.690705,224.61045 640.093158,223.902218 C643.140368,202.406759 658.984052,204.03348 658.984052,204.03348" id="Fill-92" fill="#FFFFFF"></path>
                    <path d="M652.783899,198.420838 C652.783899,198.420838 651.929795,200.70348 650.638075,203.863364 L647.900717,203.301003 L650.346332,204.57562 C649.973101,205.481031 649.569691,206.44479 649.143141,207.437724 L646.258905,205.88746 L648.761863,208.319997 C648.374548,209.212329 647.971137,210.119752 647.558673,211.023151 L644.576853,209.983941 L647.190472,211.822931 C644.540636,217.536073 641.581955,222.853853 639.853626,222.595307 C637.078039,201.063632 652.783899,198.420838 652.783899,198.420838" id="Fill-93" fill="#FFFFFF"></path>
                    <path d="M615.261864,216.876833 C616.418778,217.761118 619.061571,218.712805 622.210389,219.540753 C623.444766,218.490477 624.973904,216.981459 624.973904,216.981459 L623.785804,219.93511 C624.873303,220.194661 625.998024,220.436104 627.12677,220.655414 L628.308834,218.40396 L628.401387,220.889815 C629.760509,221.131258 631.103535,221.332461 632.37111,221.483362 L633.153788,219.181607 L633.174914,221.573903 C636.427351,221.913935 639.05103,221.882749 639.893062,221.249968 C639.893062,221.249968 633.209118,208.794533 615.261864,216.876833" id="Fill-94" fill="#FFFFFF"></path>
                    <path d="M622.840354,233.884774 C624.105917,233.741921 626.351335,232.744963 628.842221,231.363708 C628.986081,229.953279 629.0394,228.075055 629.0394,228.075055 L630.075592,230.6595 C630.919636,230.165548 631.776758,229.637392 632.621808,229.092133 L632.006129,226.955364 L633.568466,228.469412 C634.573472,227.799408 635.544273,227.115319 636.436606,226.443303 L635.538237,224.515784 L636.997961,226.013736 C639.25847,224.260257 640.898269,222.65265 641.047159,221.744221 C641.047159,221.744221 629.287885,217.919364 622.840354,233.884774" id="Fill-95" fill="#FFFFFF"></path>
                    <path d="M656.967098,219.015615 C656.164301,219.628276 654.331347,220.289226 652.147295,220.863659 C651.290172,220.135306 650.229836,219.088048 650.229836,219.088048 L651.05376,221.137294 C650.299251,221.31737 649.520597,221.485374 648.735908,221.636276 L647.917014,220.074945 L647.852629,221.800256 C646.90899,221.967254 645.977423,222.106084 645.098168,222.211715 L644.554922,220.614168 L644.540838,222.273082 C642.284353,222.509495 640.464477,222.487362 639.88099,222.049747 C639.88099,222.049747 644.517699,213.40911 656.967098,219.015615" id="Fill-96" fill="#FFFFFF"></path>
                    <path d="M653.89011,233.207829 C652.73219,233.00059 650.723184,231.94629 648.510964,230.523789 C648.462675,229.214967 648.52706,227.481608 648.52706,227.481608 L647.416422,229.800466 C646.668956,229.293436 645.910422,228.756226 645.164968,228.202919 L645.861128,226.27037 L644.328972,227.572149 C643.443681,226.895103 642.591589,226.204979 641.808911,225.531957 L642.753557,223.809665 L641.316972,225.10239 C639.339152,223.350923 637.926711,221.771484 637.843212,220.925428 C637.843212,220.925428 648.909344,218.108594 653.89011,233.207829" id="Fill-97" fill="#FFFFFF"></path>
                    <polygon id="Fill-98" fill="#FFFFFF" points="275.268028 310.893788 269.586072 310.893788 271.314401 220.92915 273.538693 220.92915"></polygon>
                    <path d="M247.727543,199.50542 C247.727543,199.50542 249.894493,201.776995 253.026209,204.866458 L255.982878,202.813188 L253.732429,205.562618 C254.631804,206.444891 255.598582,207.382494 256.607612,208.343236 L259.238333,205.046534 L257.504974,209.195328 C258.416421,210.054462 259.354024,210.926675 260.300682,211.788827 L263.30564,209.046438 L261.141708,212.550378 C267.174762,217.974795 273.37079,222.777496 275.288249,221.595432 C267.671732,194.681592 247.727543,199.50542 247.727543,199.50542" id="Fill-99" fill="#FFFFFF"></path>
                    <path d="M264.388612,196.818463 C264.388612,196.818463 264.979141,198.854631 265.889582,201.681525 L268.301998,201.373685 L266.095814,202.31833 C266.360395,203.127164 266.647109,203.990322 266.95193,204.880643 L269.555489,203.725741 L267.223554,205.670362 C267.501213,206.470142 267.790944,207.283 268.08973,208.095857 L270.74359,207.390643 L268.355317,208.81415 C270.277806,213.942799 272.491032,218.751537 274.008099,218.640875 C277.83698,200.149368 264.388612,196.818463 264.388612,196.818463" id="Fill-100" fill="#FFFFFF"></path>
                    <path d="M291.601036,204.03348 C291.601036,204.03348 290.170487,206.00627 288.08603,208.71043 L285.59615,207.440843 L287.615216,209.319067 C287.014627,210.091685 286.368767,210.913596 285.693733,211.758646 L283.325581,209.498137 L285.092138,212.507119 C284.481489,213.26364 283.851725,214.031228 283.212907,214.793785 L280.615384,212.999059 L282.646523,215.466807 C278.572174,220.270514 274.308695,224.61045 272.711148,223.902218 C275.757352,202.406759 291.601036,204.03348 291.601036,204.03348" id="Fill-101" fill="#FFFFFF"></path>
                    <path d="M285.400883,198.420838 C285.400883,198.420838 284.546779,200.70348 283.256065,203.863364 L280.517701,203.301003 L282.963316,204.57562 C282.591091,205.481031 282.186675,206.44479 281.760125,207.437724 L278.876895,205.88746 L281.379853,208.319997 C280.991532,209.212329 280.588121,210.119752 280.175657,211.023151 L277.193837,209.983941 L279.807456,211.822931 C277.15762,217.536073 274.199945,222.853853 272.47061,222.595307 C269.696029,201.063632 285.400883,198.420838 285.400883,198.420838" id="Fill-102" fill="#FFFFFF"></path>
                    <path d="M247.878848,216.876833 C249.035762,217.761118 251.678555,218.712805 254.827373,219.540753 C256.061749,218.490477 257.590888,216.981459 257.590888,216.981459 L256.402788,219.93511 C257.491293,220.194661 258.615008,220.436104 259.743754,220.655414 L260.925818,218.40396 L261.018371,220.889815 C262.378499,221.131258 263.720519,221.332461 264.988094,221.483362 L265.770772,219.181607 L265.791898,221.573903 C269.044335,221.913935 271.668014,221.882749 272.510046,221.249968 C272.510046,221.249968 265.826102,208.794533 247.878848,216.876833" id="Fill-103" fill="#FFFFFF"></path>
                    <path d="M255.457337,233.884774 C256.723907,233.741921 258.968319,232.744963 261.459205,231.363708 C261.603065,229.953279 261.656384,228.075055 261.656384,228.075055 L262.692576,230.6595 C263.53662,230.165548 264.393742,229.637392 265.238792,229.092133 L264.623113,226.955364 L266.186456,228.469412 C267.191462,227.799408 268.161257,227.115319 269.05359,226.443303 L268.155221,224.515784 L269.614945,226.013736 C271.87646,224.260257 273.515253,222.65265 273.665149,221.744221 C273.665149,221.744221 261.904869,217.919364 255.457337,233.884774" id="Fill-104" fill="#FFFFFF"></path>
                    <path d="M289.584082,219.015615 C288.781285,219.628276 286.948331,220.289226 284.764279,220.863659 C283.907156,220.135306 282.847826,219.088048 282.847826,219.088048 L283.671749,221.137294 C282.91724,221.31737 282.137581,221.485374 281.353898,221.636276 L280.533998,220.074945 L280.469613,221.800256 C279.525974,221.967254 278.595413,222.106084 277.715152,222.211715 L277.172912,220.614168 L277.157822,222.273082 C274.901337,222.509495 273.081461,222.487362 272.497974,222.049747 C272.497974,222.049747 277.134683,213.40911 289.584082,219.015615" id="Fill-105" fill="#FFFFFF"></path>
                    <path d="M286.507094,233.207829 C285.349174,233.00059 283.340168,231.94629 281.127947,230.523789 C281.079659,229.214967 281.144044,227.481608 281.144044,227.481608 L280.033406,229.800466 C279.285939,229.293436 278.528412,228.756226 277.781952,228.202919 L278.478112,226.27037 L276.946962,227.572149 C276.060665,226.895103 275.208573,226.204979 274.426901,225.531957 L275.370541,223.809665 L273.934962,225.10239 C271.956136,223.350923 270.543695,221.771484 270.461202,220.925428 C270.461202,220.925428 281.526328,218.108594 286.507094,233.207829" id="Fill-106" fill="#FFFFFF"></path>
                    <polygon id="Fill-107" fill="#FFFFFF" points="54.1929623 310.893788 49.9395435 310.893788 51.235287 243.071475 52.8992309 243.071475"></polygon>
                    <path d="M33.5845042,227.039164 C33.5845042,227.039164 35.2061956,228.738319 37.5481916,231.05114 L39.762424,229.51496 L38.0773539,231.572255 C38.751382,232.233204 39.4736986,232.933389 40.2282076,233.652687 L42.1989852,231.185946 L40.9002236,234.290499 C41.5822998,234.934347 42.2834902,235.586242 42.9937347,236.232102 L45.2421715,234.179838 L43.6224922,236.800499 C48.1364681,240.860764 52.7731776,244.454238 54.2077507,243.569954 C48.5086926,223.430599 33.5845042,227.039164 33.5845042,227.039164" id="Fill-108" fill="#FFFFFF"></path>
                    <path d="M46.0525142,225.029052 C46.0525142,225.029052 46.4931475,226.55316 47.1752236,228.667797 L48.9800092,228.438426 L47.3301495,229.144647 C47.5273279,229.750266 47.7426144,230.396126 47.9689671,231.062106 L49.9186184,230.198947 L48.1731876,231.652635 C48.3804261,232.251212 48.5977246,232.859849 48.8210593,233.468487 L50.8079331,232.94033 L49.0202497,234.004691 C50.4578409,237.843633 52.1147427,241.441132 53.2495242,241.358639 C56.1156525,227.520943 46.0525142,225.029052 46.0525142,225.029052" id="Fill-109" fill="#FFFFFF"></path>
                    <path d="M66.4144994,230.427513 C66.4144994,230.427513 65.3451086,231.904339 63.784784,233.927429 L61.9216497,232.976748 L63.4316737,234.383153 C62.9829924,234.96161 62.4991006,235.576283 61.9940826,236.209065 L60.2224954,234.515946 L61.5443952,236.769413 C61.0866597,237.334792 60.6148401,237.909225 60.1379904,238.48064 L58.1943752,237.137614 L59.7134533,238.984652 C56.6662429,242.578127 53.4751727,245.826539 52.2790244,245.295365 C54.5596537,229.210239 66.4144994,230.427513 66.4144994,230.427513" id="Fill-110" fill="#FFFFFF"></path>
                    <path d="M61.7754762,226.227614 C61.7754762,226.227614 61.1366585,227.935823 60.169881,230.300957 L58.1216405,229.880444 L59.9525824,230.833137 C59.671905,231.51119 59.3701014,232.2325 59.0511956,232.975943 L56.8922938,231.816011 L58.7664942,233.634881 C58.4757567,234.302873 58.1739531,234.981931 57.8651074,235.658977 L55.6347788,234.88133 L57.5904661,236.257554 C55.6066104,240.532099 53.393384,244.511883 52.1006585,244.317723 C50.0222377,228.205434 61.7754762,226.227614 61.7754762,226.227614" id="Fill-111" fill="#FFFFFF"></path>
                    <path d="M33.6974794,240.038751 C34.5636557,240.699701 36.5414754,241.411958 38.8975555,242.032667 C39.8210745,241.245966 40.9659162,240.11722 40.9659162,240.11722 L40.0766016,242.327428 C40.8894593,242.521589 41.7304854,242.701665 42.5755355,242.866651 L43.45982,241.181581 L43.5292349,243.041697 C44.547319,243.221773 45.551319,243.371669 46.5009944,243.486354 L47.0864934,241.763056 L47.1015836,243.552751 C49.5361327,243.807272 51.4988621,243.784134 52.1286257,243.311308 C52.1286257,243.311308 47.1277399,233.990607 33.6974794,240.038751" id="Fill-112" fill="#FFFFFF"></path>
                    <path d="M39.3680673,252.765105 C40.3157307,252.659474 41.9957707,251.912007 43.859911,250.878832 C43.9675543,249.823526 44.0067888,248.418127 44.0067888,248.418127 L44.7834301,250.352688 C45.4141996,249.98147 46.0550293,249.588119 46.6878108,249.179678 L46.2270573,247.580119 L47.3960433,248.713895 C48.1495463,248.211895 48.874881,247.699834 49.5418669,247.196828 L48.8698509,245.754207 L49.96238,246.875911 C51.6554982,245.564071 52.8818269,244.360881 52.9924882,243.680816 C52.9924882,243.680816 44.193907,240.818712 39.3680673,252.765105" id="Fill-113" fill="#FFFFFF"></path>
                    <path d="M64.9054814,241.639115 C64.3048922,242.097857 62.9336978,242.591808 61.2989283,243.022382 C60.6580986,242.477123 59.8643551,241.69344 59.8643551,241.69344 L60.4820465,243.226602 C59.9166677,243.361408 59.3331808,243.487159 58.7466758,243.599832 L58.1340144,242.431853 L58.0857259,243.72156 C57.3795054,243.847311 56.6823391,243.951937 56.0244072,244.030406 L55.6179784,242.835263 L55.6079182,244.077688 C53.918824,244.25374 52.5566838,244.237644 52.1200745,243.909684 C52.1200745,243.909684 55.58981,237.443039 64.9054814,241.639115" id="Fill-114" fill="#FFFFFF"></path>
                    <path d="M62.6026192,252.259182 C61.7364429,252.104256 60.2334609,251.315542 58.5775651,250.250176 C58.5423547,249.271326 58.5906433,247.97357 58.5906433,247.97357 L57.7596774,249.709947 C57.1993287,249.330681 56.6319379,248.928276 56.0746072,248.513799 L56.5947154,247.06816 L55.4488677,248.042985 C54.7859058,247.534949 54.1491002,247.018865 53.5636012,246.515859 L54.2698216,245.227158 L53.1943948,246.194941 C51.7155571,244.883101 50.6572325,243.701037 50.5948597,243.06725 C50.5948597,243.06725 58.8763507,240.960661 62.6026192,252.259182" id="Fill-115" fill="#FFFFFF"></path>
                    <polygon id="Fill-116" fill="#FFFFFF" points="445.954165 310.893788 450.441984 310.893788 449.076826 239.425687 447.319323 239.425687"></polygon>
                    <path d="M467.704245,222.506175 C467.704245,222.506175 465.992013,224.299894 463.520241,226.740479 L461.184281,225.118788 L462.961905,227.289762 C462.250654,227.986928 461.487091,228.727353 460.690329,229.485886 L458.612915,226.882327 L459.982097,230.157902 C459.261792,230.83696 458.522374,231.526079 457.773901,232.207149 L455.401724,230.041205 L457.110939,232.807738 C452.34546,237.092343 447.452217,240.886014 445.938169,239.951429 C451.953115,218.697413 467.704245,222.506175 467.704245,222.506175" id="Fill-117" fill="#FFFFFF"></path>
                    <path d="M454.545507,220.384093 C454.545507,220.384093 454.079724,221.992706 453.359419,224.225047 L451.456044,223.981592 L453.196445,224.727047 C452.988201,225.366871 452.762854,226.047941 452.521411,226.751143 L450.465123,225.839696 L452.306125,227.374871 C452.08782,228.00564 451.858449,228.649488 451.623042,229.290317 L449.527519,228.733993 L451.413792,229.856702 C449.89572,233.907913 448.147271,237.705608 446.949111,237.619091 C443.925038,223.013808 454.545507,220.384093 454.545507,220.384093" id="Fill-118" fill="#FFFFFF"></path>
                    <path d="M433.055783,226.082246 C433.055783,226.082246 434.184528,227.640558 435.83137,229.776322 L437.797117,228.772322 L436.203594,230.25619 C436.677426,230.866839 437.186468,231.515717 437.720661,232.182703 L439.590837,230.397031 L438.194492,232.774238 C438.678384,233.371809 439.175354,233.978434 439.679366,234.580029 L441.730624,233.162558 L440.127041,235.11221 C443.345274,238.904875 446.712396,242.332358 447.973935,241.773015 C445.56856,224.797568 433.055783,226.082246 433.055783,226.082246" id="Fill-119" fill="#FFFFFF"></path>
                    <path d="M437.951238,221.649556 C437.951238,221.649556 438.626273,223.452329 439.646369,225.948245 L441.807283,225.503588 L439.875739,226.510606 C440.170501,227.224874 440.489407,227.986425 440.826421,228.771115 L443.104032,227.545792 L441.127218,229.467275 C441.434052,230.171483 441.751952,230.88877 442.078906,231.603038 L444.432974,230.781127 L442.369643,232.233808 C444.462148,236.745772 446.798108,240.945872 448.162261,240.741652 C450.354361,223.73703 437.951238,221.649556 437.951238,221.649556" id="Fill-120" fill="#FFFFFF"></path>
                    <path d="M467.584329,236.224859 C466.669864,236.923031 464.583395,237.674522 462.096533,238.329436 C461.121707,237.499476 459.914493,236.307352 459.914493,236.307352 L460.853102,238.640294 C459.992962,238.844514 459.105659,239.036663 458.214333,239.208691 L457.280754,237.431067 L457.208321,239.393797 C456.132894,239.584939 455.073563,239.743889 454.072581,239.862598 L453.453884,238.045741 L453.437788,239.935031 C450.869439,240.20263 448.796048,240.178486 448.13208,239.678498 C448.13208,239.678498 453.410625,229.841713 467.584329,236.224859" id="Fill-121" fill="#FFFFFF"></path>
                    <path d="M461.599362,249.656729 C460.599386,249.545062 458.825787,248.756348 456.859033,247.665831 C456.745354,246.552176 456.704107,245.067302 456.704107,245.067302 L455.885214,247.109507 C455.218228,246.719174 454.541182,246.302685 453.874196,245.872112 L454.361105,244.18503 L453.125723,245.380172 C452.332985,244.85101 451.566404,244.310781 450.862196,243.779607 L451.571434,242.257511 L450.418544,243.440581 C448.631867,242.055302 447.338135,240.786721 447.220432,240.069434 C447.220432,240.069434 456.506929,237.04838 461.599362,249.656729" id="Fill-122" fill="#FFFFFF"></path>
                    <path d="M434.647294,237.913752 C435.282087,238.397644 436.728733,238.919764 438.454043,239.373475 C439.131089,238.798036 439.968091,237.972101 439.968091,237.972101 L439.318208,239.589768 C439.912761,239.731616 440.529446,239.864409 441.148143,239.984125 L441.795009,238.750754 L441.84531,240.112894 C442.590765,240.244682 443.32616,240.355343 444.020308,240.437836 L444.449875,239.177303 L444.460941,240.487131 C446.242588,240.673243 447.681186,240.657147 448.141939,240.310073 C448.141939,240.310073 444.479049,233.486293 434.647294,237.913752" id="Fill-123" fill="#FFFFFF"></path>
                    <path d="M437.077819,249.122335 C437.992284,248.959362 439.578765,248.126384 441.326208,247.002668 C441.36343,245.968488 441.313129,244.599305 441.313129,244.599305 L442.190372,246.431253 C442.780901,246.031867 443.379478,245.607329 443.969001,245.169714 L443.419719,243.6446 L444.627939,244.671738 C445.327117,244.13654 446.001145,243.592287 446.617831,243.061113 L445.873382,241.699979 L447.007158,242.722087 C448.569494,241.33882 449.685162,240.09036 449.750552,239.421362 C449.750552,239.421362 441.011326,237.197069 437.077819,249.122335" id="Fill-124" fill="#FFFFFF"></path>
                    <polygon id="Fill-125" fill="#FFFFFF" points="210.409729 310.893788 214.898554 310.893788 213.53239 239.425687 211.775893 239.425687"></polygon>
                    <polygon id="Fill-125-Copy" fill="#FFFFFF" points="938.409729 310.895689 942.898554 310.895689 941.53239 259.425687 939.775893 259.425687"></polygon>
                </g>
            </g>
        </g>
    </g>
</svg>